<?xml version="1.0" encoding="utf-8"?>
<!-- Generator: Adobe Illustrator 15.0.0, SVG Export Plug-In . SVG Version: 6.00 Build 0)  -->
<!DOCTYPE svg PUBLIC "-//W3C//DTD SVG 1.1//EN" "http://www.w3.org/Graphics/SVG/1.1/DTD/svg11.dtd">
<svg version="1.1" id="Layer_1" xmlns="http://www.w3.org/2000/svg" xmlns:xlink="http://www.w3.org/1999/xlink" x="0px" y="0px"
	 width="600px" height="600px" viewBox="0 0 600 600" enable-background="new 0 0 600 600" xml:space="preserve">
<g>
	<path fill="#EB6657" d="M75.958,346.225l16.33-40.823l20.283-52.74l85.338,85.34l0.245-82.768l-20.508-20.51l253.86-93.277
		l162.051,162.049c0.018-1.313,0.05-2.625,0.05-3.943c0-161.947-131.288-293.229-293.229-293.229
		C138.43,6.324,7.149,137.605,7.149,299.553c0,161.597,130.729,292.662,292.203,293.215L57.738,351.153L75.958,346.225z"/>
	<path fill="#B54538" d="M593.557,303.496L431.506,141.447l-28.959,8.824L182.1,174.766l-4.455,59.958l20.508,20.51l-0.245,82.768
		l-85.338-85.34l-20.283,52.74l-16.33,40.823l-18.221,4.929l241.615,241.614c0.343,0.002,0.683,0.014,1.025,0.014
		C461,592.781,591.443,463.616,593.557,303.496z"/>
</g>
<g>
	<path fill="#FFFFFF" d="M345.977,302.363c0-15.653,5.048-27.995,15.142-37.022c5.741-5.136,11.063-8.76,19.233-10.975L431,144.278
		v-3.625c0,1.035-4.909,2.076-13.307,3.452c-8.395,1.385-16.787,1.896-28.507,1.896H228.532c-8.555,0-18.718-0.683-29.331-2.415
		C188.58,141.86,181,140.311,177,138.581V234h4v-2.952c0-20.022,5.944-32.902,15.921-44.128c9.984-11.215,24.956-16.92,43.018-16.92
		h75.099l-88.289,174h4.298c6.76,0,12.435-0.764,17.017-4.65c4.585-3.892,7.989-12.35,10.214-15.35h1.388l-6.393,28h-29.542
		L170,453.492V459h257.212l13.864-92h-4.755c-6.653,24-14.974,30.166-31.449,45.355C388.393,427.555,369.379,435,347.834,435
		h-51.333l53.062-111.99C347.19,317.008,345.977,309.919,345.977,302.363z M315.6,345.728c1.759,1.714,3.795,1.272,6.207,1.272
		h1.664l0.141,5H280v-5h3.183c2.407,0,4.934,0.441,6.646-1.272c1.714-1.713,3.171-2.475,3.171-4.882V263.74
		c0-2.408-1.457-3.507-3.171-5.172c-1.713-1.672-4.24-1.568-6.646-1.568H280v-4h43.611l-0.141,4h-1.664
		c-2.412,0-4.448-0.104-6.207,1.568c-1.762,1.666-2.6,2.765-2.6,5.172v77.105C313,343.253,313.838,344.015,315.6,345.728z"/>
	<path fill="#FFFFFF" d="M159.334,346.286c-2.133-1.342-3.888-1.69-5.28-4.376L112.792,253h-1.247c-0.28,0-2.593,8.012-6.948,17.18
		l-32.091,72.148c-1.392,2.594-3.151,2.984-5.28,4.279c-2.131,1.301-4.26,0.393-6.391,0.393H58v5h31v-5h-0.794
		c-2.039,0-3.566,0.672-4.585-0.575c-1.02-1.257-1.528-1.759-1.528-2.827c0-1.064,0.233-1.753,0.695-2.953L90.011,324h32.51
		l6.806,16.969c0.461,1.106,0.69,2.159,0.69,3.272c0,1.111-0.479,0.96-1.456,2.214c-0.969,1.248-2.479,0.545-4.513,0.545H123v5h42
		v-5h0.865C163.64,347,161.462,347.627,159.334,346.286z M92.372,320l14.311-34.176L120.157,320H92.372z"/>
	<path fill="#FFFFFF" d="M213,344v-80.12c0-2.408,0.804-3.529,2.564-5.247c1.76-1.709,3.766-1.633,6.176-1.633h1.668l0.139-4H181v4
		h2.118c2.408,0,2.465-0.076,4.179,1.633c1.711,1.717,0.703,2.839,0.703,5.247v76.966c0,2.407,1.008,3.169-0.703,4.882
		c-1.714,1.714-1.771,1.272-4.179,1.272H181v5h42.732l3.017-8H213z"/>
	<path fill="#FFFFFF" d="M361.259,339.314c10.187,8.986,24.219,13.5,42.095,13.547c17.873,0.047,30.564-5.347,38.065-17.758
		L440.026,312h-1.109c-2.224,12-6.205,22.269-11.946,27.827c-5.652,5.374-13.849,7.662-24.59,7.662
		c-10.373-0.276-18.594-4.644-24.661-12.696c-6.065-8.064-9.098-19.039-9.098-32.749c0-13.704,3.172-24.567,9.517-32.487
		c6.341-7.918,14.978-11.995,25.908-11.995c16.854,0,27.646,6.438,32.371,25.438h1.108l-0.274-23.798
		c-9.637-5.004-21.165-7.457-34.594-7.457c-7.59,0-14.438,0.915-20.632,2.596l-32.464,68.321
		C352.11,329.098,355.985,334.668,361.259,339.314z"/>
	<path fill="#FFFFFF" d="M539.838,324c-2.226,3-5.628,11.458-10.212,15.35c-4.583,3.887-10.257,4.65-17.017,4.65H495v-40h18.026
		c3.333,4,5.306,2.234,7.486,4.459c2.177,2.227,2.487,6.036,2.487,9.464V320h3v-32h-3v0.191c0,3.333-0.334,6.564-2.559,8.836
		c-2.217,2.268-4.266,3.973-7.692,3.973H495v-41h22.748c2.779,0,4.503,0.602,6.542,1.803c4.258,2.405,5.71,6.341,5.71,12.081v1.527
		v0.14V251.24c0,0.279-1.081,0.394-4.04,1.087c-2.972,0.694-5.344,0.673-9.878,0.673H464v4h0.679c2.314,0,3.298,0.087,5.521,2.121
		c1.203,1.112,0.801,1.937,0.801,4.344v77.38c0,2.407,0.285,3.169-1.43,4.882c-1.713,1.714-2.483,1.272-4.892,1.272H464v5h70.835
		l6.394-28H539.838z"/>
</g>
</svg>
